<svg xmlns="http://www.w3.org/2000/svg" viewBox="0 0 760 620" width="760" height="620" role="img"><defs><radialGradient id="halo" cx=".5" cy=".45" r=".5"><stop offset="0" stop-color="#FFFFFF" stop-opacity=".55"/><stop offset="1" stop-color="#FFFFFF" stop-opacity="0"/></radialGradient><linearGradient id="bodyH" x1="0" y1="0" x2="1" y2="0"><stop offset="0" stop-color="#12263A"/><stop offset=".55" stop-color="#1B3B55"/><stop offset="1" stop-color="#0C1B29"/></linearGradient><linearGradient id="crimpH" x1="0" y1="0" x2="1" y2="0"><stop offset="0" stop-color="#8E97A3"/><stop offset=".4" stop-color="#E8ECF1"/><stop offset="1" stop-color="#828C99"/></linearGradient><linearGradient id="amberH" x1="0" y1="0" x2="1" y2="0"><stop offset="0" stop-color="#C8842F"/><stop offset=".5" stop-color="#E8AE5C"/><stop offset="1" stop-color="#B87526"/></linearGradient><linearGradient id="stone" x1="0" y1="0" x2="0" y2="1"><stop offset="0" stop-color="#BDBDB6"/><stop offset="1" stop-color="#8E8F8A"/></linearGradient></defs><circle cx="470" cy="250" r="235" fill="url(#halo)"/><ellipse cx="392" cy="470" rx="196" ry="42" fill="#00030E" opacity=".10"/><path d="M214 452c8-34 44-52 96-56 74-6 168-2 214 14 34 12 44 34 30 54-16 22-88 36-176 36-96 0-176-18-164-48z" fill="url(#stone)"/><path d="M214 452c10-30 46-48 96-52-30 16-52 34-60 56-14 4-32 2-36-4z" fill="#FFFFFF" opacity=".22"/><g transform="translate(300,120) scale(1.18)"><ellipse cx="60" cy="292" rx="52" ry="9" fill="#00030E" opacity=".18"/><rect x="34" y="0" width="52" height="30" rx="7" fill="#151A22"/><rect x="34" y="0" width="16" height="30" rx="7" fill="#FFFFFF" opacity=".16"/><rect x="30" y="26" width="60" height="18" rx="4" fill="url(#crimpH)"/><rect x="14" y="40" width="92" height="248" rx="16" fill="url(#bodyH)"/><text transform="translate(97,262) rotate(-90)" font-family="Satoshi, Inter, 'Helvetica Neue', Helvetica, Arial, sans-serif" font-size="13" font-weight="500" letter-spacing="3.2" fill="#FFFFFF" opacity=".85">PATHWAYS</text><text x="28" y="118" font-family="Satoshi, Inter, 'Helvetica Neue', Helvetica, Arial, sans-serif" font-size="17" font-weight="500" fill="#FFFFFF">BPC-157</text><rect x="28" y="130" width="44" height="18" rx="9" fill="#019DA6"/><text x="36" y="143" font-family="Satoshi, Inter, 'Helvetica Neue', Helvetica, Arial, sans-serif" font-size="9" font-weight="500" fill="#FFFFFF">10 mg</text><rect x="28" y="164" width="52" height="2" rx="1" fill="#FFFFFF" opacity=".28"/><rect x="28" y="172" width="40" height="2" rx="1" fill="#FFFFFF" opacity=".2"/><text x="28" y="266" font-family="Satoshi, Inter, 'Helvetica Neue', Helvetica, Arial, sans-serif" font-size="7" font-weight="400" fill="#FFFFFF" opacity=".6">RESEARCH USE ONLY</text><rect x="22" y="52" width="12" height="222" rx="6" fill="#FFFFFF" opacity=".22"/><rect x="94" y="52" width="5" height="222" rx="2.5" fill="#FFFFFF" opacity=".12"/></g><g transform="translate(520,300) scale(1.0)"><ellipse cx="40" cy="176" rx="34" ry="7" fill="#00030E" opacity=".16"/><rect x="24" y="0" width="32" height="34" rx="5" fill="#1D1F26"/><rect x="30" y="30" width="20" height="14" fill="#C9CED6"/><rect x="8" y="42" width="64" height="130" rx="14" fill="url(#amberH)"/><rect x="14" y="52" width="8" height="110" rx="4" fill="#FFFFFF" opacity=".3"/><rect x="18" y="86" width="44" height="42" rx="4" fill="#FBF6EC"/><text x="26" y="102" font-family="Satoshi, Inter, 'Helvetica Neue', Helvetica, Arial, sans-serif" font-size="8" font-weight="500" fill="#6B5A34">LUNARA</text><text x="26" y="114" font-family="Satoshi, Inter, 'Helvetica Neue', Helvetica, Arial, sans-serif" font-size="6" font-weight="400" fill="#9A8759">NOURISH OIL</text></g><circle cx="614" cy="196" r="66" fill="#FFFFFF"/><text x="614" y="182" text-anchor="middle" font-family="Satoshi, Inter, 'Helvetica Neue', Helvetica, Arial, sans-serif" font-size="12" font-weight="500" fill="#00030E">FREE MINI</text><text x="614" y="197" text-anchor="middle" font-family="Satoshi, Inter, 'Helvetica Neue', Helvetica, Arial, sans-serif" font-size="12" font-weight="500" fill="#00030E">BODY OIL</text><text x="614" y="212" text-anchor="middle" font-family="Satoshi, Inter, 'Helvetica Neue', Helvetica, Arial, sans-serif" font-size="8" font-weight="400" fill="#7C828E" letter-spacing="1">ON ORDERS</text><text x="614" y="230" text-anchor="middle" font-family="Satoshi, Inter, 'Helvetica Neue', Helvetica, Arial, sans-serif" font-size="17" font-weight="500" fill="#019DA6">$79+</text></svg>
