<svg xmlns="http://www.w3.org/2000/svg" viewBox="44 0 112 190" width="112" height="190" role="img"><defs><linearGradient id="ga" x1="0" y1="0" x2="1" y2="0"><stop offset="0" stop-color="#F4F8FC"/><stop offset=".45" stop-color="#FFFFFF"/><stop offset="1" stop-color="#D9E4EE"/></linearGradient><linearGradient id="ca" x1="0" y1="0" x2="1" y2="0"><stop offset="0" stop-color="#9AA7B6"/><stop offset=".35" stop-color="#E7EDF3"/><stop offset="1" stop-color="#8D9BAA"/></linearGradient><linearGradient id="la" x1="0" y1="0" x2="1" y2="1"><stop offset="0" stop-color="#F2F6F3"/><stop offset="1" stop-color="#DFE9E2"/></linearGradient></defs><g><ellipse cx="100" cy="176" rx="47" ry="6.5" fill="#0B1B3A" opacity=".12"/><rect x="58" y="32" width="84" height="140" rx="12" fill="url(#ga)"/><rect x="79" y="19" width="42" height="14" rx="3" fill="url(#ca)"/><rect x="84" y="2" width="32" height="19" rx="5" fill="#161E2E"/><rect x="84" y="2" width="10" height="19" rx="5" fill="#FFFFFF" opacity=".14"/><rect x="58" y="58" width="84" height="100" rx="3" fill="url(#la)"/><path transform="translate(66,62) scale(0.42)" fill="#2BB3C0" d="M9 0 18 5.2v10.4L9 20.8 0 15.6V5.2Z"/><text x="78" y="70" font-family="Inter, 'Helvetica Neue', Helvetica, Arial, sans-serif" font-size="7.5" font-weight="700" fill="#12324F">Test</text><rect x="65" y="77" width="70" height="1" fill="#12324F" opacity=".22"/><text x="65" y="94" font-family="Inter, 'Helvetica Neue', Helvetica, Arial, sans-serif" font-size="10" font-weight="700" fill="#12324F">CJC-1295</text><text x="65" y="103" font-family="Inter, 'Helvetica Neue', Helvetica, Arial, sans-serif" font-size="4.8" font-weight="500" fill="#12324F" opacity=".7">Lyophilised Powder</text><rect x="65" y="109" width="25" height="11" rx="2.5" fill="#0B1B3A" opacity=".22"/><text x="68" y="117" font-family="Inter, 'Helvetica Neue', Helvetica, Arial, sans-serif" font-size="6" font-weight="700" fill="#12324F">5 MG</text><rect x="93" y="109" width="21" height="11" rx="2.5" fill="#0B1B3A" opacity=".22"/><text x="96" y="117" font-family="Inter, 'Helvetica Neue', Helvetica, Arial, sans-serif" font-size="6" font-weight="700" fill="#12324F">99%</text><rect x="65" y="128" width="56" height="2" rx="1" fill="#12324F" opacity=".2"/><rect x="65" y="134" width="46" height="2" rx="1" fill="#12324F" opacity=".16"/><rect x="65" y="140" width="51" height="2" rx="1" fill="#12324F" opacity=".12"/><text x="65" y="151" font-family="Inter, 'Helvetica Neue', Helvetica, Arial, sans-serif" font-size="4.4" font-weight="600" fill="#12324F" opacity=".75">FOR RESEARCH USE ONLY</text><rect x="64" y="40" width="10" height="126" rx="5" fill="#FFFFFF" opacity=".38"/><rect x="131" y="40" width="4" height="126" rx="2" fill="#FFFFFF" opacity=".2"/></g></svg>
